<svg xmlns="http://www.w3.org/2000/svg" xmlns:xlink="http://www.w3.org/1999/xlink" viewBox="0 0 1271.74 249.14"><defs><style>.cls-1{isolation:isolate;}.cls-2{fill:#f1f2f2;}.cls-3{fill:#110544;}.cls-4{opacity:0.35;fill:url(#linear-gradient);}.cls-11,.cls-4{mix-blend-mode:hard-light;}.cls-5{fill:#cd66ff;opacity:0.5;}.cls-10,.cls-12,.cls-5{mix-blend-mode:overlay;}.cls-6{fill:none;stroke:#fff;stroke-linecap:round;stroke-miterlimit:10;stroke-width:4px;}.cls-7{fill:url(#linear-gradient-2);}.cls-8{fill:url(#linear-gradient-3);}.cls-9{fill:url(#linear-gradient-4);}.cls-10{fill:#fff;opacity:0.2;}.cls-11{opacity:0.7;fill:url(#linear-gradient-5);}.cls-12{opacity:0.4;fill:url(#linear-gradient-6);}</style><linearGradient id="linear-gradient" x1="212.8" y1="212.66" x2="36.63" y2="36.49" gradientUnits="userSpaceOnUse"><stop offset="0" stop-color="#cd66ff" stop-opacity="0"/><stop offset="0.24" stop-color="#c888fa" stop-opacity="0.22"/><stop offset="0.79" stop-color="#badeee" stop-opacity="0.78"/><stop offset="1" stop-color="#b5ffe9"/></linearGradient><linearGradient id="linear-gradient-2" x1="78.61" y1="156.1" x2="69.07" y2="101.97" gradientUnits="userSpaceOnUse"><stop offset="0" stop-color="#ffa114"/><stop offset="1" stop-color="#ff3"/></linearGradient><linearGradient id="linear-gradient-3" x1="148.11" y1="244.4" x2="124.96" y2="113.06" gradientUnits="userSpaceOnUse"><stop offset="0" stop-color="#ffa114"/><stop offset="0.19" stop-color="#ffad18"/><stop offset="0.53" stop-color="#ffcb22"/><stop offset="0.98" stop-color="#fffd32"/><stop offset="1" stop-color="#ff3"/></linearGradient><linearGradient id="linear-gradient-4" x1="145.17" y1="244.92" x2="131.64" y2="168.17" gradientUnits="userSpaceOnUse"><stop offset="0" stop-color="#099"/><stop offset="1" stop-color="#0f3"/></linearGradient><linearGradient id="linear-gradient-5" x1="165.61" y1="236.94" x2="83.81" y2="12.2" gradientUnits="userSpaceOnUse"><stop offset="0" stop-color="#c8ff11"/><stop offset="0.01" stop-color="#caff17" stop-opacity="0.96"/><stop offset="0.05" stop-color="#d4ff35" stop-opacity="0.78"/><stop offset="0.09" stop-color="#ddff52" stop-opacity="0.61"/><stop offset="0.14" stop-color="#e5ff6b" stop-opacity="0.47"/><stop offset="0.2" stop-color="#ecff80" stop-opacity="0.34"/><stop offset="0.25" stop-color="#f2ff92" stop-opacity="0.23"/><stop offset="0.32" stop-color="#f7ffa0" stop-opacity="0.15"/><stop offset="0.4" stop-color="#fbffab" stop-opacity="0.08"/><stop offset="0.49" stop-color="#fdffb3" stop-opacity="0.03"/><stop offset="0.63" stop-color="#ffffb8" stop-opacity="0.01"/><stop offset="1" stop-color="#ffffb9" stop-opacity="0"/></linearGradient><linearGradient id="linear-gradient-6" x1="212.66" y1="212.66" x2="36.49" y2="36.49" gradientUnits="userSpaceOnUse"><stop offset="0" stop-color="#fff" stop-opacity="0"/><stop offset="1" stop-color="#fff"/></linearGradient></defs><g class="cls-1"><g id="Layer_1" data-name="Layer 1"><path class="cls-2" d="M525.53,45.46a9,9,0,0,1,5-1.46,9.52,9.52,0,0,1,6.22,2.13,7,7,0,0,1,2.6,5.72,11.47,11.47,0,0,1-.68,3.59L487.57,198.38a9.08,9.08,0,0,1-3.84,4.83,11.32,11.32,0,0,1-6.1,1.68,10.94,10.94,0,0,1-5.87-1.68,9.08,9.08,0,0,1-3.84-4.83L423.63,74.07,378.9,198.38a9.18,9.18,0,0,1-3.84,4.83,11.11,11.11,0,0,1-11.75,0,9.08,9.08,0,0,1-3.84-4.83L308.18,55.44a9.53,9.53,0,0,1-.68-3.36,7.13,7.13,0,0,1,2.82-5.84A10.12,10.12,0,0,1,316.76,44a9.57,9.57,0,0,1,5.09,1.46,7.52,7.52,0,0,1,3.27,4.37l44.51,127.46L414.82,51.18a9.33,9.33,0,0,1,9-6.73,9.1,9.1,0,0,1,5.42,1.79,10.15,10.15,0,0,1,3.62,5.17l44.51,126.33,45-127.91A7.7,7.7,0,0,1,525.53,45.46Z" transform="translate(-3 -2)"/><path class="cls-2" d="M634,134.66v61a9,9,0,0,1-2.37,6.51,8.54,8.54,0,0,1-6.44,2.47,8.92,8.92,0,0,1-6.55-2.47,8.77,8.77,0,0,1-2.49-6.51V184.92A32.16,32.16,0,0,1,603,199.84a38.8,38.8,0,0,1-20.34,5.28,44.77,44.77,0,0,1-19.54-4.27A34.77,34.77,0,0,1,549,189a29.21,29.21,0,0,1-5.2-16.83q0-12.34,6.33-19.19T571,143.07q14.44-3,40.21-3h5v-7.4q0-13.47-5.53-19.75t-18-6.28q-15.37,0-31.18,8.3-6.11,3.81-8.59,3.81a5.81,5.81,0,0,1-4.52-2,7.45,7.45,0,0,1-1.81-5.16,8.38,8.38,0,0,1,1.93-5.49,22.24,22.24,0,0,1,6.21-4.83,73,73,0,0,1,18-7.07,80.19,80.19,0,0,1,20-2.58Q634,91.57,634,134.66Zm-26.54,47q8.68-9.09,8.69-23.45v-6.51h-4.06q-19.89,0-30.28,1.68T567,159q-4.4,3.93-4.4,11.56A18.49,18.49,0,0,0,569,185q6.44,5.73,16.15,5.72Q598.74,190.75,607.44,181.67Z" transform="translate(-3 -2)"/><path class="cls-2" d="M758.25,94.49a8.76,8.76,0,0,1,2.49,6.51v95.14q0,24.45-12.66,36.91t-37.5,12.46q-24.18,0-40.22-9.43-8.13-4.49-8.13-10.32a7.74,7.74,0,0,1,1.69-5.16,5.47,5.47,0,0,1,4.41-2c1.5,0,4.21,1,8.13,3.14a105.6,105.6,0,0,0,15.59,6.51,60.28,60.28,0,0,0,18.3,2.47q16,0,24.18-8.42t8.13-24.57v-19.3a34.27,34.27,0,0,1-14.57,16.16q-9.84,5.61-23.16,5.61a48.76,48.76,0,0,1-25.65-6.73,45.66,45.66,0,0,1-17.39-19.08q-6.23-12.33-6.22-28.49t6.22-28.5A45.66,45.66,0,0,1,679.28,98.3a48.85,48.85,0,0,1,25.65-6.73q13.1,0,22.82,5.61a36,36,0,0,1,14.68,15.93V101a9,9,0,0,1,2.38-6.51A8.78,8.78,0,0,1,751.47,92,9.19,9.19,0,0,1,758.25,94.49ZM733.4,174.71q9-10.44,9-28.83,0-18.18-8.92-28.61t-25-10.44q-16,0-25.19,10.44t-9.15,28.61q0,18.39,9.15,28.83t25.19,10.43Q724.35,185.14,733.4,174.71Z" transform="translate(-3 -2)"/><path class="cls-2" d="M876.87,180.21a7.46,7.46,0,0,1,1.8,5.16q0,5.61-7.9,10.32a68.87,68.87,0,0,1-17.17,7.07A69.86,69.86,0,0,1,836,205.12q-25.53,0-40.33-15t-14.8-41.51q0-16.83,6.56-29.73a48.65,48.65,0,0,1,18.41-20.09,51.18,51.18,0,0,1,27-7.18q21.47,0,34.12,13.91t12.65,37.7c0,3-.6,5.16-1.81,6.51s-3.16,2-5.87,2H799.14q2,38.6,36.83,38.6A43.45,43.45,0,0,0,851.11,188a98.29,98.29,0,0,0,13.56-6.4c3.91-2.24,6.55-3.36,7.9-3.36A5.59,5.59,0,0,1,876.87,180.21Zm-67-65.53q-8.7,9-10.28,25.36h63.94q-.46-16.6-8.36-25.47T833,105.71Q818.57,105.71,809.88,114.68Z" transform="translate(-3 -2)"/><path class="cls-2" d="M938.44,202.09a9.19,9.19,0,0,1-2.6-6.85V61.05H887.26a9.17,9.17,0,0,1-6.33-2,7.41,7.41,0,0,1-2.26-5.83,7.43,7.43,0,0,1,2.26-5.83,9.17,9.17,0,0,1,6.33-2h115.91a9.12,9.12,0,0,1,6.32,2,7.39,7.39,0,0,1,2.26,5.83,7.38,7.38,0,0,1-2.26,5.83,9.12,9.12,0,0,1-6.32,2H954.59V195.24a9.44,9.44,0,0,1-2.49,6.85,9,9,0,0,1-6.77,2.58A9.36,9.36,0,0,1,938.44,202.09Z" transform="translate(-3 -2)"/><path class="cls-2" d="M1057.16,99.65a7.92,7.92,0,0,1-2,5.72c-1.35,1.43-3.69,2.28-7,2.58l-6.78.68q-15.13,1.34-22.48,10.65a34.29,34.29,0,0,0-7.35,21.88v54.53q0,4.5-2.48,6.73a9.39,9.39,0,0,1-6.55,2.25,9.56,9.56,0,0,1-6.67-2.36,8.49,8.49,0,0,1-2.6-6.62V101a8.3,8.3,0,0,1,2.72-6.62,9.62,9.62,0,0,1,6.55-2.36,8.56,8.56,0,0,1,6.1,2.36,8.41,8.41,0,0,1,2.48,6.39v12.57a34.28,34.28,0,0,1,13.45-15,45.7,45.7,0,0,1,20-6.06l3.16-.22Q1057.17,91.35,1057.16,99.65Z" transform="translate(-3 -2)"/><path class="cls-2" d="M1161.55,134.66v61a9,9,0,0,1-2.37,6.51,8.55,8.55,0,0,1-6.44,2.47,8.94,8.94,0,0,1-6.56-2.47,8.81,8.81,0,0,1-2.48-6.51V184.92a32.12,32.12,0,0,1-13.11,14.92,38.77,38.77,0,0,1-20.33,5.28,44.74,44.74,0,0,1-19.54-4.27A34.8,34.8,0,0,1,1076.59,189a29.27,29.27,0,0,1-5.19-16.83q0-12.34,6.32-19.19t20.79-9.87q14.46-3,40.22-3h5v-7.4q0-13.47-5.54-19.75t-18-6.28q-15.36,0-31.18,8.3-6.11,3.81-8.58,3.81a5.79,5.79,0,0,1-4.52-2,7.4,7.4,0,0,1-1.81-5.16,8.43,8.43,0,0,1,1.92-5.49,22.39,22.39,0,0,1,6.21-4.83,73,73,0,0,1,18-7.07,80.11,80.11,0,0,1,20-2.58Q1161.55,91.57,1161.55,134.66Zm-26.55,47q8.7-9.09,8.7-23.45v-6.51h-4.07q-19.87,0-30.27,1.68t-14.8,5.61q-4.41,3.93-4.41,11.56a18.53,18.53,0,0,0,6.44,14.47q6.44,5.73,16.15,5.72Q1126.3,190.75,1135,181.67Z" transform="translate(-3 -2)"/><path class="cls-2" d="M1274.74,196.36a8.15,8.15,0,0,1-2.37,5.84,7.71,7.71,0,0,1-5.76,2.47,9.57,9.57,0,0,1-6.1-2.7l-59-50.48v44.2a8.49,8.49,0,0,1-2.6,6.62,9.24,9.24,0,0,1-6.44,2.36,9.53,9.53,0,0,1-6.66-2.36,8.46,8.46,0,0,1-2.6-6.62V53.2a8.46,8.46,0,0,1,2.6-6.62,9.53,9.53,0,0,1,6.66-2.36,9.24,9.24,0,0,1,6.44,2.36,8.49,8.49,0,0,1,2.6,6.62v91.1l54-49.14a8.48,8.48,0,0,1,6.1-2.69,8,8,0,0,1,5.87,2.47,8,8,0,0,1,2.49,5.83,8.9,8.9,0,0,1-3.17,6.73L1222.32,147l48.81,42.18C1273.53,191.43,1274.74,193.82,1274.74,196.36Z" transform="translate(-3 -2)"/></g><g id="Layer_4" data-name="Layer 4"><circle id="Shine" class="cls-3" cx="124.71" cy="124.57" r="124.57"/></g><g id="Layer_2" data-name="Layer 2"><circle id="Base" class="cls-4" cx="124.71" cy="124.57" r="124.57"/><path class="cls-5" d="M127.71,2A124.57,124.57,0,1,0,252.28,126.57,124.57,124.57,0,0,0,127.71,2Zm0,244.14A119.57,119.57,0,1,1,247.28,126.57,119.71,119.71,0,0,1,127.71,246.14Z" transform="translate(-3 -2)"/><path id="Reflection1" class="cls-6" d="M74.33,40.19a100.94,100.94,0,0,1,34.32-13.4" transform="translate(-3 -2)"/><path id="Reflection2" class="cls-6" d="M52.63,58.23A103.07,103.07,0,0,1,64,47.55" transform="translate(-3 -2)"/><path id="SloshTop" class="cls-7" d="M92.5,153.64c24.11-4.68,38.91-16.19,48-22.49-25.9-6-34-25.54-75.41-25.58-12.9,0-31.73,4.05-56.75,28C44.6,154.69,72.13,157.59,92.5,153.64Z" transform="translate(-3 -2)"/><path id="Slosh1" class="cls-8" d="M11,135c38.11,21.15,62.39,21.43,78.88,19a101.65,101.65,0,0,0,39-15.09l.12-.08c14.86-9.62,28.39-20.79,51.59-25.64a106.46,106.46,0,0,1,16.47-2.09h.25c16.89-.83,33.46,2.23,49.72,7.82h0q.24,3.81.24,7.67A119.57,119.57,0,0,1,8.35,133.62Z" transform="translate(-3 -2)"/><path id="Slosh2" class="cls-9" d="M127.71,246.14A119.77,119.77,0,0,0,241.27,164c-18.2-5.08-36.9-6.37-55.25-1.55-35.94,9.45-45.83,35.86-79.67,43.57-19.37,4.41-45.87,2.53-81.75-19A119.62,119.62,0,0,0,127.71,246.14Z" transform="translate(-3 -2)"/><path id="Crecent" class="cls-10" d="M178.15,18.17A119.53,119.53,0,0,1,47.28,215,119.54,119.54,0,1,0,178.15,18.17Z" transform="translate(-3 -2)"/><circle id="Low" class="cls-11" cx="124.71" cy="124.57" r="119.57"/><circle id="Shine-2" data-name="Shine" class="cls-12" cx="124.57" cy="124.57" r="124.57"/></g></g></svg>