<svg xmlns="http://www.w3.org/2000/svg" xmlns:xlink="http://www.w3.org/1999/xlink" viewBox="0 0 1276.26 263.25"><defs><style>.cls-1{isolation:isolate;}.cls-2{font-size:224.39px;fill:#f1f2f2;font-family:Nunito-Regular, Nunito;letter-spacing:-0.08em;}.cls-3{letter-spacing:-0.02em;}.cls-4{letter-spacing:-0.03em;}.cls-5{letter-spacing:-0.05em;}.cls-6{letter-spacing:-0.16em;}.cls-7{letter-spacing:0.01em;}.cls-8{letter-spacing:-0.05em;}.cls-9{letter-spacing:0em;}.cls-10{fill:#110544;}.cls-11{opacity:0.35;fill:url(#linear-gradient);}.cls-11,.cls-18{mix-blend-mode:hard-light;}.cls-12{fill:#cd66ff;opacity:0.5;}.cls-12,.cls-17,.cls-19{mix-blend-mode:overlay;}.cls-13{fill:none;stroke:#fff;stroke-linecap:round;stroke-miterlimit:10;stroke-width:4px;}.cls-14{fill:url(#linear-gradient-2);}.cls-15{fill:url(#linear-gradient-3);}.cls-16{fill:url(#linear-gradient-4);}.cls-17{fill:#fff;opacity:0.2;}.cls-18{opacity:0.7;fill:url(#linear-gradient-5);}.cls-19{opacity:0.4;fill:url(#linear-gradient-6);}</style><linearGradient id="linear-gradient" x1="212.8" y1="212.66" x2="36.63" y2="36.49" gradientUnits="userSpaceOnUse"><stop offset="0" stop-color="#cd66ff" stop-opacity="0"/><stop offset="0.24" stop-color="#c888fa" stop-opacity="0.22"/><stop offset="0.79" stop-color="#badeee" stop-opacity="0.78"/><stop offset="1" stop-color="#b5ffe9"/></linearGradient><linearGradient id="linear-gradient-2" x1="78.61" y1="156.1" x2="69.07" y2="101.97" gradientUnits="userSpaceOnUse"><stop offset="0" stop-color="#ffa114"/><stop offset="1" stop-color="#ff3"/></linearGradient><linearGradient id="linear-gradient-3" x1="148.11" y1="244.4" x2="124.96" y2="113.06" gradientUnits="userSpaceOnUse"><stop offset="0" stop-color="#ffa114"/><stop offset="0.19" stop-color="#ffad18"/><stop offset="0.53" stop-color="#ffcb22"/><stop offset="0.98" stop-color="#fffd32"/><stop offset="1" stop-color="#ff3"/></linearGradient><linearGradient id="linear-gradient-4" x1="145.17" y1="244.92" x2="131.64" y2="168.17" gradientUnits="userSpaceOnUse"><stop offset="0" stop-color="#099"/><stop offset="1" stop-color="#0f3"/></linearGradient><linearGradient id="linear-gradient-5" x1="165.61" y1="236.94" x2="83.81" y2="12.2" gradientUnits="userSpaceOnUse"><stop offset="0" stop-color="#c8ff11"/><stop offset="0.01" stop-color="#caff17" stop-opacity="0.96"/><stop offset="0.05" stop-color="#d4ff35" stop-opacity="0.78"/><stop offset="0.09" stop-color="#ddff52" stop-opacity="0.61"/><stop offset="0.14" stop-color="#e5ff6b" stop-opacity="0.47"/><stop offset="0.2" stop-color="#ecff80" stop-opacity="0.34"/><stop offset="0.25" stop-color="#f2ff92" stop-opacity="0.23"/><stop offset="0.32" stop-color="#f7ffa0" stop-opacity="0.15"/><stop offset="0.4" stop-color="#fbffab" stop-opacity="0.08"/><stop offset="0.49" stop-color="#fdffb3" stop-opacity="0.03"/><stop offset="0.63" stop-color="#ffffb8" stop-opacity="0.01"/><stop offset="1" stop-color="#ffffb9" stop-opacity="0"/></linearGradient><linearGradient id="linear-gradient-6" x1="212.66" y1="212.66" x2="36.49" y2="36.49" gradientUnits="userSpaceOnUse"><stop offset="0" stop-color="#fff" stop-opacity="0"/><stop offset="1" stop-color="#fff"/></linearGradient></defs><g class="cls-1"><g id="Layer_1" data-name="Layer 1"><text class="cls-2" transform="translate(296.14 201.54) scale(1.01 1)">W<tspan class="cls-3" x="230" y="0">a</tspan><tspan class="cls-4" x="343.77" y="0">g</tspan><tspan class="cls-5" x="468.08" y="0">e</tspan><tspan class="cls-6" x="574.67" y="0">T</tspan><tspan class="cls-7" x="672.5" y="0">r</tspan><tspan class="cls-8" x="753.96" y="0">a</tspan><tspan class="cls-9" x="861.22" y="0">k</tspan></text></g><g id="Layer_4" data-name="Layer 4"><circle id="Shine" class="cls-10" cx="124.71" cy="124.57" r="124.57"/></g><g id="Layer_2" data-name="Layer 2"><circle id="Base" class="cls-11" cx="124.71" cy="124.57" r="124.57"/><path class="cls-12" d="M127.71,2A124.57,124.57,0,1,0,252.28,126.57,124.57,124.57,0,0,0,127.71,2Zm0,244.14A119.57,119.57,0,1,1,247.28,126.57,119.71,119.71,0,0,1,127.71,246.14Z" transform="translate(-3 -2)"/><path id="Reflection1" class="cls-13" d="M74.33,40.19a100.94,100.94,0,0,1,34.32-13.4" transform="translate(-3 -2)"/><path id="Reflection2" class="cls-13" d="M52.63,58.23A103.07,103.07,0,0,1,64,47.55" transform="translate(-3 -2)"/><path id="SloshTop" class="cls-14" d="M92.5,153.64c24.11-4.68,38.91-16.19,48-22.49-25.9-6-34-25.54-75.41-25.58-12.9,0-31.73,4.05-56.75,28C44.6,154.69,72.13,157.59,92.5,153.64Z" transform="translate(-3 -2)"/><path id="Slosh1" class="cls-15" d="M11,135c38.11,21.15,62.39,21.43,78.88,19a101.65,101.65,0,0,0,39-15.09l.12-.08c14.86-9.62,28.39-20.79,51.59-25.64a106.46,106.46,0,0,1,16.47-2.09h.25c16.89-.83,33.46,2.23,49.72,7.82h0q.24,3.81.24,7.67A119.57,119.57,0,0,1,8.35,133.62Z" transform="translate(-3 -2)"/><path id="Slosh2" class="cls-16" d="M127.71,246.14A119.77,119.77,0,0,0,241.27,164c-18.2-5.08-36.9-6.37-55.25-1.55-35.94,9.45-45.83,35.86-79.67,43.57-19.37,4.41-45.87,2.53-81.75-19A119.62,119.62,0,0,0,127.71,246.14Z" transform="translate(-3 -2)"/><path id="Crecent" class="cls-17" d="M178.15,18.17A119.53,119.53,0,0,1,47.28,215,119.54,119.54,0,1,0,178.15,18.17Z" transform="translate(-3 -2)"/><circle id="Low" class="cls-18" cx="124.71" cy="124.57" r="119.57"/><circle id="Shine-2" data-name="Shine" class="cls-19" cx="124.57" cy="124.57" r="124.57"/></g></g></svg>